# xmcd CD database file
#
# Track frame offsets:
#	150
#	19611
#	41181
#	52884
#	74672
#	94560
#	118070
#	141185
#	151366
#	166402
#	206407
#	241313
#
# Disc length: 3535 seconds
#
# Revision: 3
# Processed by: cddbd v1.5.2PL0 Copyright (c) Steve Scherf et al.
# Submitted via: CDex 1.70beta2
#
DISCID=a20dcd0c
DTITLE=Various Artist - The Best of Polish Smooth Jazz - CD 4
DYEAR=2005
DGENRE=Jazz
TTITLE0=Antoni Gralak - Wszyscy Tańczą
TTITLE1=The Ślub - Odpływają Kawiarenki
TTITLE2=Andrzej Zaucha - Muszę Sprawdzić
TTITLE3=Paulina Bysztyga - Ajde Jano
TTITLE4=Urszula Dudziak - Bolero
TTITLE5=Motion Trio - Bałkan
TTITLE6=Bogdan Precz - A Pod Gruduskiem
TTITLE7=Trio Revirado - Libertango
TTITLE8=Tomasz Stańko Feat. Dorota Miśkiewicz - Blue Velvet
TTITLE9=Alek Korecki - Strzały Dla Piotra
TTITLE10=Orkiestra Świętokrzyska - Świśliniec
TTITLE11=Filip Sojka - Tam i z powrotem do domu
EXTD=YEAR: 2005
EXTT0=
EXTT1=
EXTT2=
EXTT3=
EXTT4=
EXTT5=
EXTT6=
EXTT7=
EXTT8=
EXTT9=
EXTT10=
EXTT11=
PLAYORDER=
